<!--?xml version="1.0" standalone="no"?-->
              <svg id="sw-js-blob-svg" viewBox="0 0 100 100" xmlns="http://www.w3.org/2000/svg" version="1.1">
                    <defs> 
                        <linearGradient id="sw-gradient" x1="0" x2="1" y1="1" y2="0">
                            <stop id="stop1" stop-color="rgba(248, 117, 55, 1)" offset="0%"></stop>
                            <stop id="stop2" stop-color="rgba(251, 168, 31, 1)" offset="100%"></stop>
                        </linearGradient>
                    </defs>
                <path fill="url(#sw-gradient)" d="M23.9,-35.9C31,-32.6,36.7,-26,39.7,-18.4C42.8,-10.8,43.2,-2.3,40.5,4.7C37.7,11.7,31.8,17.1,26.7,23.3C21.6,29.6,17.2,36.7,10.6,40.9C3.9,45,-5,46.2,-12.2,43.3C-19.5,40.5,-25.1,33.5,-28.7,26.5C-32.3,19.4,-33.9,12.3,-36.2,4.5C-38.5,-3.3,-41.4,-11.8,-38.8,-17.9C-36.3,-24,-28.2,-27.7,-20.8,-30.8C-13.5,-33.9,-6.7,-36.5,0.8,-37.8C8.4,-39.1,16.8,-39.2,23.9,-35.9Z" width="100%" height="100%" transform="translate(50 50)" stroke-width="0" style="transition: all 0.3s ease 0s;"></path>
              </svg>