<svg id="wave" style="transform:rotate(180deg); transition: 0.3s" viewBox="0 0 1440 120" version="1.1" xmlns="http://www.w3.org/2000/svg"><defs><linearGradient id="sw-gradient-0" x1="0" x2="0" y1="1" y2="0"><stop stop-color="rgba(68, 130, 243, 1)" offset="0%"></stop><stop stop-color="rgba(140.841, 94.713, 205.266, 1)" offset="100%"></stop></linearGradient></defs><path style="transform:translate(0, 0px); opacity:1" fill="url(#sw-gradient-0)" d="M0,84L20,70C40,56,80,28,120,28C160,28,200,56,240,58C280,60,320,36,360,38C400,40,440,68,480,68C520,68,560,40,600,30C640,20,680,28,720,40C760,52,800,68,840,62C880,56,920,28,960,26C1000,24,1040,48,1080,58C1120,68,1160,64,1200,52C1240,40,1280,20,1320,20C1360,20,1400,40,1440,48C1480,56,1520,52,1560,58C1600,64,1640,80,1680,82C1720,84,1760,72,1800,74C1840,76,1880,92,1920,88C1960,84,2000,60,2040,48C2080,36,2120,36,2160,48C2200,60,2240,84,2280,86C2320,88,2360,68,2400,52C2440,36,2480,24,2520,24C2560,24,2600,36,2640,50C2680,64,2720,80,2760,74C2800,68,2840,40,2860,26L2880,12L2880,120L2860,120C2840,120,2800,120,2760,120C2720,120,2680,120,2640,120C2600,120,2560,120,2520,120C2480,120,2440,120,2400,120C2360,120,2320,120,2280,120C2240,120,2200,120,2160,120C2120,120,2080,120,2040,120C2000,120,1960,120,1920,120C1880,120,1840,120,1800,120C1760,120,1720,120,1680,120C1640,120,1600,120,1560,120C1520,120,1480,120,1440,120C1400,120,1360,120,1320,120C1280,120,1240,120,1200,120C1160,120,1120,120,1080,120C1040,120,1000,120,960,120C920,120,880,120,840,120C800,120,760,120,720,120C680,120,640,120,600,120C560,120,520,120,480,120C440,120,400,120,360,120C320,120,280,120,240,120C200,120,160,120,120,120C80,120,40,120,20,120L0,120Z"></path></svg>